<svg width="500" height="500" viewBox="0 0 500 500" fill="none" xmlns="http://www.w3.org/2000/svg">
<path d="M305.328 156.509C289.419 155.681 277.808 162.766 279.15 170.902C280.594 179.6 296.582 185.888 313.934 186.894C331.286 187.9 341.939 181.487 339.019 172.582C336.3 164.239 321.236 157.308 305.328 156.509Z" fill="black"/>
<path d="M357.51 252.463C356.589 239.404 339.611 227.675 321.146 224.477C299.295 222.077 285.704 230.608 284.784 243.667C283.792 257.77 304.26 273.705 323.518 274.051C342.775 274.397 356.719 267.655 357.51 252.463Z" fill="black"/>
<path d="M294.336 132.522C287.578 137.982 293.16 145.671 307.152 149.757C321.548 153.955 338.406 152.729 344.502 146.897C350.305 141.362 343.656 133.673 329.958 129.81C316.59 126.059 300.799 127.284 294.336 132.522Z" fill="black"/>
<path d="M359.826 154.065C347.266 156.888 344.989 165.357 355.162 173.157C365.886 181.366 385.534 185.675 398.534 182.555C411.168 179.546 412.012 170.483 400.848 162.571C390.234 155.03 372.018 151.316 359.789 154.065H359.826Z" fill="black"/>
<path d="M408.224 194.213C390.854 192.355 379.36 199.227 382.628 209.702C386.117 220.883 404.406 231.989 423.32 234.292C442.233 236.595 453.323 228.832 448.218 217.168C443.444 206.248 425.595 196.07 408.224 194.213Z" fill="black"/>
<path d="M422.66 248.817C403.71 240.125 383.182 241.946 376.424 252.718C369.226 264.233 379.435 281.654 399.634 291.832C420.64 302.418 442.749 300.561 448.662 287.411C454.134 275.153 442.308 257.807 422.66 248.817Z" fill="black"/>
<path opacity="0.95" d="M384.541 304.869C370.733 288.785 345.906 282.024 328.719 289.231C310.761 296.734 306.354 316.607 319.281 334.288C333.31 353.38 360.266 361.998 379.18 352.749C397.211 343.908 399.452 322.178 384.541 304.869Z" fill="black"/>
<path opacity="0.9" d="M292.433 339.679C291.295 319.509 272.308 303.796 249.979 303.833C227.651 303.833 208.664 319.509 207.525 339.679C206.314 361.78 225.337 380.538 249.979 380.538C274.622 380.538 293.645 361.817 292.433 339.679Z" fill="black"/>
<path d="M180.726 334.287C193.653 316.606 189.282 296.734 171.287 289.23C154.063 282.024 129.275 288.784 115.466 304.868C100.593 322.178 102.833 343.945 120.828 352.749C139.741 361.998 166.698 353.38 180.726 334.287Z" fill="black"/>
<path d="M100.373 291.832C120.572 281.655 130.782 264.196 123.584 252.718C116.827 241.946 96.3351 240.126 77.3484 248.818C57.6639 257.807 45.875 275.154 51.347 287.412C57.223 300.561 79.3298 302.456 100.373 291.832Z" fill="black"/>
<path d="M76.6762 234.337C95.5894 232.034 113.879 220.928 117.367 209.747C120.636 199.272 109.14 192.4 91.7695 194.258C74.3988 196.078 56.55 206.293 51.7758 217.213C46.6711 228.877 57.763 236.64 76.6762 234.337Z" fill="black"/>
<path d="M101.472 182.555C114.51 185.675 134.121 181.366 144.844 173.157C155.054 165.357 152.777 156.888 140.18 154.065C127.951 151.316 109.772 155.03 99.1214 162.571C87.9571 170.483 88.8013 179.546 101.435 182.555H101.472Z" fill="black"/>
<path d="M155.494 146.859C161.591 152.653 178.447 153.916 192.843 149.719C206.835 145.633 212.418 137.944 205.661 132.484C199.197 127.246 183.405 126.02 170.037 129.772C156.339 133.635 149.692 141.324 155.494 146.859Z" fill="black"/>
<path d="M223.286 130.106C222.735 136.57 234.706 141.77 250.021 141.77C265.335 141.77 277.308 136.57 276.757 130.106C276.243 123.977 264.27 119 250.021 119C235.771 119 223.837 123.977 223.286 130.106Z" fill="black"/>
<path d="M361.459 194.419C347.764 186.955 327.026 186.086 315.613 192.492C303.596 199.221 305.405 211.434 319.234 219.808C333.836 228.653 355.905 230.606 367.788 222.878C379.032 215.561 375.893 202.265 361.459 194.419Z" fill="black"/>
<path d="M276.869 286.846C292.562 275.157 289.716 257.856 276.08 248.464C263.13 239.523 240.237 238.047 224.696 248.464C208.318 259.414 210.356 276.675 223.115 286.846C236.599 297.591 260.301 299.191 276.869 286.846Z" fill="black"/>
<path d="M174.608 273.48C196.243 273.252 213.489 260.65 215.216 246.865C216.823 233.971 202.814 223.309 183.729 224.622C164.622 224.622 144.069 237.27 143.388 250.692C139.893 264.806 153.835 275.121 174.608 273.527V273.48Z" fill="black"/>
<path d="M133.608 223.611C145.999 230.424 167.736 228.182 181.609 218.744C194.9 209.712 195.143 197.5 182.665 191.345C170.684 185.445 150.66 187.314 137.42 195.784C123.674 204.56 121.715 217.098 133.608 223.611Z" fill="black"/>
<path d="M160.606 173.764C160.905 182.588 175.179 188.168 192.514 186.18C209.85 184.191 222.528 175.52 220.866 166.853C219.297 158.667 205.071 153.532 189.06 155.369C173.049 157.205 160.324 165.431 160.606 173.764Z" fill="black"/>
<path d="M220.791 159.513C220.13 167.536 233.204 174.074 250.024 174.074C266.844 174.074 279.919 167.536 279.258 159.513C278.634 151.935 265.558 145.806 250.024 145.806C234.489 145.806 221.415 151.935 220.791 159.513Z" fill="black"/>
</svg>
