<?xml version="1.0" encoding="UTF-8"?>
<svg id="Layer_1" data-name="Layer 1" xmlns="http://www.w3.org/2000/svg" viewBox="0 0 398.99 260.54">
  <defs>
    <style>
      .cls-1 {
        opacity: .95;
      }

      .cls-1, .cls-2, .cls-3, .cls-4 {
        stroke: #000;
      }

      .cls-1, .cls-5, .cls-3 {
        fill: #000;
      }

      .cls-1, .cls-4 {
        isolation: isolate;
      }

      .cls-2, .cls-4 {
        fill: #fff;
      }

      .cls-5 {
        stroke-width: 0px;
      }

      .cls-4 {
        opacity: .9;
      }
    </style>
  </defs>
  <path class="cls-3" d="M254.78,38.01h0c7.83.39,15.44,2.3,21.4,5.11h0c6.02,2.84,10.15,6.5,11.38,10.27h0c.66,2.01.54,3.81-.2,5.4h0c-.75,1.61-2.18,3.07-4.29,4.3h0c-4.23,2.46-11.01,3.8-19.58,3.31-8.59-.5-16.8-2.3-23.01-5.03-3.11-1.36-5.68-2.94-7.54-4.67-1.87-1.73-2.98-3.57-3.3-5.46-.57-3.47,1.58-6.94,6.13-9.52h0c4.52-2.57,11.2-4.11,19.01-3.71h.01Z"/>
  <path class="cls-3" d="M294.8,116.07h0c-6.52-4.86-15.22-8.53-24.3-10.11-10.78-1.18-19.4.35-25.4,3.68-5.98,3.32-9.39,8.43-9.82,14.59l59.53-8.16ZM294.8,116.07c6.53,4.86,10.74,10.8,11.2,16.9-.39,7.21-3.87,12.38-9.58,15.75-5.77,3.41-13.86,5-23.39,4.83-9.38-.17-19.1-4.14-26.36-9.82l-.31.39M294.8,116.07l-48.44,28.05M246.36,144.12l.31-.39M246.36,144.12l.31-.39M246.67,143.73c-7.3-5.71-11.85-12.93-11.39-19.49l11.39,19.49Z"/>
  <path class="cls-3" d="M244.48,13.79h-.02c-1.55,1.27-2.29,2.56-2.45,3.79l2.47-3.79ZM244.48,13.79h0M244.48,13.79h0M244.48,13.78c3-2.42,8.31-4.01,14.65-4.49h0c6.31-.48,13.49.14,20.05,1.98,6.76,1.91,11.63,4.72,14.1,7.6,1.23,1.43,1.8,2.82,1.82,4.07.02,1.23-.5,2.49-1.79,3.72h0c-2.79,2.67-8.24,4.41-14.95,4.92-6.66.5-14.35-.23-21.43-2.29-6.91-2.02-11.56-4.88-13.67-7.74h0c-1.04-1.41-1.42-2.75-1.26-3.99l2.47-3.79Z"/>
  <path class="cls-3" d="M309.98,35.44l-.44.1c-6.16,1.39-9.38,4.07-10.11,6.95l10.55-7.05ZM309.98,35.44h0M309.98,35.44h0M309.98,35.44c5.86-1.22,13.11-.97,20.23.5,7.21,1.49,14.19,4.2,19.34,7.8h0s.21.15.21.15c5.5,3.9,7.68,7.84,7.35,10.91-.33,2.99-3.14,5.82-9.32,7.29l-.29.07c-6.27,1.44-14.14,1.14-21.8-.52-7.78-1.69-15.22-4.77-20.44-8.76-4.98-3.82-6.55-7.52-5.83-10.38l10.55-7.05Z"/>
  <path class="cls-3" d="M396.79,98.07h0c-2.26-5.18-7.71-10.32-14.85-14.41-7.12-4.08-15.79-7.04-24.33-7.95-8.56-.91-15.53.34-19.92,2.98h0c-2.18,1.32-3.69,2.95-4.48,4.8l63.58,14.58ZM396.79,98.07c1.21,2.76,1.42,5.2.87,7.26-.55,2.07-1.88,3.87-3.97,5.31h0c-4.21,2.91-11.42,4.29-20.77,3.15-9.31-1.14-18.48-4.44-25.73-8.83h0M396.79,98.07l-49.59,6.9M347.2,104.97c-7.29-4.41-12.49-9.82-14.12-15.07M333.08,89.9c-.76-2.42-.64-4.57.14-6.41l-.14,6.41Z"/>
  <path class="cls-3" d="M371.74,130.23h0c9.68,4.43,17.4,10.9,22.01,17.72,4.62,6.84,6.04,13.86,3.5,19.55-2.75,6.12-9.34,9.76-18.03,10.52-8.67.76-19.27-1.36-29.64-6.59h0c-9.97-5.02-17.41-11.8-21.47-18.67l-.43.25.43-.25c-4.06-6.87-4.68-13.69-1.35-19.02,3.14-5.01,9.6-8.08,17.78-8.78h0c8.15-.7,17.85.98,27.19,5.26Z"/>
  <path class="cls-1" d="M307.12,169.78c9.85,2.74,19.28,8.3,26.03,16.1h0s.12.14.12.14c7.31,8.48,10.35,17.98,9.44,26.36-.91,8.35-5.77,15.7-14.48,19.98-9.18,4.49-20.37,4.67-31.04,1.34-10.67-3.33-20.73-10.13-27.61-19.49-6.33-8.65-8.35-17.76-6.69-25.55,1.66-7.77,7.01-14.36,15.71-18h0c8.34-3.5,18.61-3.63,28.52-.87h0Z"/>
  <path class="cls-4" d="M199.47,185.33h0c21.91-.04,40.35,15.36,41.45,34.9,1.18,21.48-17.3,39.8-41.45,39.8s-42.63-18.36-41.46-39.8c1.1-19.54,19.55-34.9,41.46-34.9Z"/>
  <path class="cls-2" d="M136.12,188.65h0c1.66,7.79-.38,16.89-6.71,25.55-6.88,9.36-16.94,16.17-27.61,19.49-10.67,3.33-21.87,3.15-31.04-1.34-8.69-4.25-13.54-11.6-14.45-19.96h0c-.92-8.38,2.12-17.89,9.41-26.37h0c6.76-7.88,16.23-13.49,26.14-16.24,9.91-2.75,20.18-2.62,28.54.87l.09.04h0c8.66,3.64,13.98,10.21,15.63,17.96Z"/>
  <path class="cls-2" d="M49.42,171.44h0c-10.39,5.24-20.99,7.37-29.66,6.6-8.69-.77-15.27-4.42-18-10.54-2.54-5.69-1.14-12.72,3.48-19.55,4.61-6.82,12.32-13.29,22.02-17.72h0c9.35-4.28,19.05-5.96,27.2-5.26,8.18.7,14.62,3.77,17.77,8.79,3.33,5.31,2.72,12.13-1.35,19.01l.43.25-.43-.25c-4.06,6.87-11.5,13.66-21.47,18.68Z"/>
  <path class="cls-2" d="M41.34,75.76c-8.53.9-17.19,3.86-24.3,7.94l-.25-.43.25.43c-7.14,4.1-12.59,9.24-14.85,14.42h0c-1.21,2.76-1.42,5.2-.87,7.26h0c.55,2.07,1.88,3.87,3.97,5.31l36.06-34.94ZM41.34,75.76h.03c8.56-.92,15.53.34,19.92,2.98,2.18,1.32,3.69,2.95,4.48,4.81h0c.79,1.84.9,3.99.14,6.41-1.64,5.25-6.84,10.66-14.12,15.07-7.25,4.39-16.42,7.69-25.73,8.83-9.34,1.14-16.55-.24-20.77-3.15l36.06-34.94Z"/>
  <path class="cls-2" d="M51.08,62.05h.06s.06.03.06.03l-.12-.03ZM51.08,62.05h-.04M51.08,62.05h-.04M51.05,62.05c-6.1-1.48-8.88-4.29-9.21-7.26h0c-.33-3.07,1.85-7.01,7.35-10.91,5.18-3.67,12.25-6.44,19.56-7.95h0c7.31-1.51,14.76-1.73,20.7-.4h0c6.18,1.39,9.41,4.07,10.13,6.95.71,2.83-.83,6.49-5.72,10.27h0l-.13.1c-5.21,3.99-12.65,7.07-20.42,8.76-7.78,1.69-15.78,1.97-22.11.46l-.15-.03Z"/>
  <path class="cls-2" d="M225.25,10.67h0v.02c.11,1.27-.38,2.54-1.53,3.79h0c-1.16,1.26-2.95,2.45-5.29,3.47-4.68,2.04-11.36,3.32-18.92,3.32s-14.24-1.29-18.92-3.32c-2.34-1.02-4.13-2.21-5.29-3.47h0c-1.15-1.25-1.64-2.52-1.53-3.79.11-1.21.79-2.46,2.09-3.68,1.3-1.22,3.18-2.36,5.52-3.34l14.58,2.32,29.28,4.67Z"/>
  <path class="cls-3" d="M287.13,69.75c8.17.34,16.6,2.39,23.28,6.01h0s.06.03.06.03c7.06,3.84,11.2,8.92,12.3,13.77h0c1.08,4.76-.72,9.51-6.04,12.97-5.69,3.7-13.93,5.14-22.64,4.52h0c-8.69-.62-17.7-3.27-24.85-7.61h0c-6.78-4.11-10.41-9.03-11.03-13.56h0c-.61-4.43,1.63-8.81,7.38-12.03h0c5.49-3.08,13.32-4.46,21.54-4.11Z"/>
  <path class="cls-2" d="M163.47,148.44c-.05-6.53,3.28-13.25,11.15-18.56h0l.13-.08c7.57-5.07,16.96-7.27,26.09-7.09,9.02.18,17.69,2.69,23.96,6.93l.22.15c6.61,4.56,10.53,10.97,10.96,17.57.43,6.57-2.58,13.51-10.2,19.18h0c-16.2,12.07-39.4,10.49-52.53.02-6.19-4.94-9.71-11.53-9.76-18.12ZM163.47,148.44h-.5M163.47,148.44h-.5"/>
  <path class="cls-2" d="M123.6,152.98h-.49v.11c-9.81.59-17.88-1.56-23.12-5.4-5.35-3.93-7.77-9.64-6.13-16.26h0s.01-.05.01-.05v-.04s.01-.04.01-.04v-.05h0c.32-6.24,5.29-12.51,12.8-17.28h0c7.46-4.75,17.19-7.85,26.54-7.85h.05s.02,0,.02,0h0c9.35-.64,17.38,1.65,22.85,5.61,5.46,3.95,8.33,9.5,7.58,15.51-.82,6.52-5.33,12.89-12.41,17.69-7.06,4.79-16.59,7.94-27.22,8.05h-.49Z"/>
  <path class="cls-2" d="M106.45,106.78c-8.56.87-16.84-.26-22.8-3.51h0s-.06-.04-.06-.04c-5.66-3.1-7.85-7.5-7.2-12.05l-.49-.07.49.07c.67-4.65,4.33-9.76,11.07-14.06h0c6.47-4.14,14.62-6.68,22.65-7.45h0c8.04-.78,15.84.23,21.61,3.07,6,2.96,8.72,7.24,8.58,11.69h0c-.15,4.51-3.25,9.57-9.75,13.98h0c-6.78,4.61-15.51,7.48-24.09,8.36h0Z"/>
  <path class="cls-2" d="M111.1,54.23h0c-.12-3.63,2.61-7.5,7.66-10.76h0c5-3.23,12.03-5.71,19.91-6.61h0c7.88-.9,15.28-.09,20.86,1.93h0c5.64,2.04,9.16,5.18,9.85,8.75l.49-.09-.49.09c.72,3.74-1.62,7.73-6.63,11.15-4.96,3.39-12.3,6.01-20.85,6.99-8.55.98-16.28.09-21.87-2.09h0c-5.64-2.2-8.8-5.56-8.93-9.36Z"/>
  <path class="cls-2" d="M220.24,49.41c-5.12,2.55-12.43,4.17-20.73,4.17s-15.61-1.62-20.73-4.17c-5.18-2.58-7.79-5.94-7.51-9.31.27-3.23,3.25-6.43,8.45-8.87,5.13-2.41,12.14-3.92,19.78-3.92s14.65,1.51,19.78,3.92h0c5.2,2.44,8.19,5.64,8.45,8.87.28,3.38-2.33,6.73-7.51,9.31ZM220.24,49.41l.22.45-.22-.45Z"/>
  <path class="cls-5" d="M199.49.5c3.41,0,6.8.27,9.95.8,3.15.53,6.02,1.3,8.43,2.28,2.41.98,4.33,2.13,5.64,3.41,1.31,1.27,1.98,2.64,1.98,4.02s-.67,2.74-1.98,4.02c-1.31,1.27-3.22,2.43-5.64,3.41-2.42.97-5.28,1.75-8.43,2.28-3.15.53-6.54.8-9.95.8V.5Z"/>
  <path class="cls-5" d="M199.49,27.5c3.68,0,7.32.34,10.71.99,3.4.65,6.48,1.61,9.08,2.82,2.6,1.21,4.66,2.64,6.07,4.22,1.41,1.58,2.13,3.27,2.13,4.98s-.72,3.4-2.13,4.98c-1.41,1.58-3.47,3.01-6.07,4.22-2.6,1.21-5.69,2.16-9.08,2.82-3.4.65-7.04.99-10.71.99v-26Z"/>
  <path class="cls-5" d="M199.99,122.5c4.79,0,9.54.67,13.97,1.98,4.43,1.31,8.45,3.22,11.84,5.64,3.39,2.41,6.08,5.28,7.91,8.43,1.83,3.15,2.78,6.54,2.78,9.95s-.94,6.8-2.78,9.95c-1.83,3.15-4.52,6.02-7.91,8.43-3.39,2.41-7.41,4.33-11.84,5.64-4.43,1.31-9.17,1.98-13.97,1.98v-52Z"/>
  <path class="cls-5" d="M199.99,185.5c5.45,0,10.85.97,15.88,2.86,5.03,1.88,9.61,4.65,13.46,8.13,3.85,3.48,6.91,7.62,9,12.17,2.09,4.55,3.16,9.43,3.16,14.35s-1.07,9.8-3.16,14.35c-2.09,4.55-5.14,8.68-9,12.17-3.85,3.48-8.43,6.24-13.46,8.13-5.04,1.89-10.43,2.86-15.88,2.86v-75Z"/>
  <ellipse class="cls-2" cx="33.68" cy="94.85" rx="34.02" ry="17.01" transform="translate(-28.57 15.75) rotate(-18.65)"/>
  <ellipse class="cls-2" cx="128.59" cy="19.66" rx="26.46" ry="11.88" transform="translate(-1.27 12.02) rotate(-5.33)"/>
  <ellipse class="cls-2" cx="199.48" cy="11.04" rx="25.77" ry="10.54"/>
  <path class="cls-5" d="M199.85,11.04l.17-10.54c13.87.04,25.23,4.78,25.23,10.54s-11.47,10.54-25.4,10.54c-.04,0-.08,0-.12,0l.12-10.54Z"/>
  <ellipse class="cls-3" cx="270.63" cy="129.33" rx="22.76" ry="35" transform="translate(89.28 368.25) rotate(-78.34)"/>
  <ellipse class="cls-3" cx="365.09" cy="94.95" rx="17.41" ry="33.87" transform="translate(155.46 408.57) rotate(-70.82)"/>
</svg>