<svg width="500" height="500" viewBox="0 0 500 500" fill="none" xmlns="http://www.w3.org/2000/svg">
<path d="M305.303 157.009L305.302 157.009C297.42 156.598 290.64 158.151 286.017 160.779C281.38 163.414 279.021 167.049 279.644 170.82C279.981 172.853 281.174 174.783 283.094 176.562C285.014 178.341 287.637 179.947 290.777 181.325C297.057 184.081 305.332 185.894 313.963 186.395C322.586 186.895 329.477 185.545 333.827 183.022C335.999 181.763 337.514 180.226 338.318 178.504C339.119 176.792 339.238 174.854 338.544 172.737L338.544 172.737C337.25 168.765 332.963 165.026 326.906 162.169C320.876 159.324 313.197 157.405 305.303 157.009Z" stroke="black"/>
<path d="M347.184 268.653C353.032 265.197 356.614 259.871 357.009 252.467C356.551 246.155 352.208 240.087 345.608 235.173C339.013 230.262 330.233 226.56 321.076 224.972C310.225 223.783 301.483 225.314 295.358 228.712C289.246 232.104 285.73 237.359 285.283 243.702C284.804 250.508 289.517 257.874 296.866 263.624C304.194 269.358 314.023 273.38 323.526 273.551C333.106 273.723 341.302 272.129 347.184 268.653Z" stroke="black"/>
<path d="M294.651 132.91L294.65 132.911C293.031 134.219 292.202 135.618 292.015 137.01C291.829 138.402 292.271 139.876 293.365 141.358C295.569 144.344 300.337 147.246 307.292 149.277C314.432 151.359 322.185 152.096 328.902 151.59C335.646 151.081 341.238 149.328 344.157 146.536L344.157 146.535C345.527 145.228 346.123 143.837 346.104 142.442C346.085 141.035 345.438 139.543 344.163 138.052C341.605 135.061 336.626 132.21 329.822 130.292C323.197 128.432 315.966 127.806 309.596 128.294C303.206 128.783 297.765 130.387 294.651 132.91Z" stroke="black"/>
<path d="M380.823 154.949C373.476 153.434 365.955 153.199 359.935 154.544L359.936 154.552C353.714 155.951 350.251 158.703 349.454 161.866C348.661 165.015 350.433 168.9 355.466 172.76C360.753 176.808 368.272 179.913 376.101 181.616C383.93 183.319 392.012 183.606 398.418 182.069L398.418 182.068C404.665 180.581 407.758 177.657 408.118 174.347C408.482 170.996 406.098 166.905 400.558 162.979L400.558 162.978C395.322 159.258 388.184 156.467 380.823 154.949Z" stroke="black"/>
<path d="M447.76 217.369L447.76 217.369C445.434 212.048 439.883 206.842 432.697 202.725C425.523 198.616 416.784 195.631 408.171 194.71C399.547 193.788 392.454 195.042 387.945 197.761C385.696 199.117 384.106 200.826 383.266 202.797C382.429 204.764 382.32 207.034 383.106 209.553C384.797 214.972 390.118 220.462 397.449 224.898C404.762 229.325 413.995 232.653 423.38 233.796C432.779 234.94 440.136 233.568 444.491 230.556C446.66 229.057 448.076 227.159 448.658 224.96C449.24 222.76 449.001 220.205 447.76 217.369Z" stroke="black"/>
<path d="M422.452 249.272L422.452 249.272C413.046 244.958 403.263 243.26 395.013 243.967C386.748 244.675 380.11 247.783 376.848 252.983C373.382 258.528 374.066 265.552 378.186 272.522C382.304 279.489 389.825 286.329 399.859 291.385L399.641 291.817L399.859 291.385C410.294 296.644 420.98 298.799 429.764 298.024C438.556 297.248 445.351 293.554 448.205 287.207C450.843 281.297 449.342 274.083 444.667 267.169C439.997 260.263 432.205 253.734 422.452 249.272Z" stroke="black"/>
<path opacity="0.95" d="M384.162 305.195L384.162 305.194C377.329 297.236 367.76 291.574 357.763 288.798C347.764 286.02 337.379 286.142 328.912 289.692L328.912 289.692C320.073 293.385 314.601 300.102 312.907 308.047C311.212 315.999 313.289 325.245 319.685 333.992C326.632 343.447 336.786 350.314 347.548 353.669C358.312 357.025 369.643 356.856 378.96 352.3C387.824 347.953 392.785 340.458 393.717 331.93C394.649 323.39 391.544 313.764 384.162 305.195Z" stroke="black"/>
<path opacity="0.9" d="M249.98 304.333H249.979C227.86 304.333 209.146 319.854 208.025 339.706C206.831 361.48 225.582 380.038 249.979 380.038C274.377 380.038 293.128 361.517 291.934 339.706C290.813 319.853 272.098 304.297 249.98 304.333Z" stroke="black"/>
<path d="M121.048 352.299C130.365 356.856 141.696 357.025 152.46 353.669C163.222 350.314 173.376 343.446 180.323 333.992C186.719 325.244 188.805 315.998 187.113 308.046C185.424 300.102 179.952 293.385 171.095 289.692L171.094 289.692C162.608 286.141 152.224 286.02 142.23 288.797C132.238 291.574 122.679 297.235 115.846 305.194L115.846 305.194C108.483 313.763 105.386 323.399 106.319 331.944C107.25 340.477 112.202 347.972 121.048 352.299ZM121.048 352.299L120.828 352.749L121.048 352.299C121.048 352.299 121.048 352.299 121.048 352.299Z" stroke="black"/>
<path d="M100.148 291.386L100.148 291.386C110.181 286.33 117.703 279.481 121.822 272.509C125.943 265.534 126.626 258.51 123.161 252.984C119.899 247.784 113.27 244.676 105.01 243.967C96.764 243.261 86.9804 244.959 77.5565 249.273L77.5561 249.273C67.7848 253.735 59.9934 260.264 55.3284 267.169C50.6573 274.084 49.165 281.297 51.8035 287.208C54.6396 293.555 61.4251 297.259 70.2165 298.039C78.9993 298.819 89.6939 296.664 100.148 291.386Z" stroke="black"/>
<path d="M91.8227 194.755L91.8216 194.755C83.2098 195.657 74.4715 198.643 67.2977 202.757C60.1114 206.878 54.5599 212.093 52.234 217.414L52.2339 217.414C50.9927 220.25 50.754 222.805 51.3366 225.005C51.9188 227.204 53.3351 229.102 55.5036 230.602C59.8595 233.613 67.2169 234.985 76.6157 233.841C86.0008 232.698 95.234 229.37 102.547 224.944C109.878 220.507 115.199 215.017 116.89 209.598C117.676 207.079 117.567 204.809 116.729 202.843C115.89 200.871 114.299 199.162 112.05 197.806C107.541 195.088 100.447 193.833 91.8227 194.755Z" stroke="black"/>
<path d="M101.494 182.055H101.531L101.589 182.069C108.013 183.606 116.095 183.319 123.92 181.616C131.743 179.913 139.253 176.808 144.54 172.76L144.541 172.76C149.594 168.899 151.373 165.015 150.58 161.866C149.783 158.703 146.312 155.951 140.071 154.552L140.071 154.552C134.044 153.198 126.517 153.431 119.16 154.949C111.803 156.466 104.665 159.258 99.4103 162.979C93.8708 166.905 91.4867 170.996 91.851 174.347C92.2096 177.647 95.2847 180.563 101.494 182.055Z" stroke="black"/>
<path d="M205.347 132.872L205.346 132.872C202.232 130.349 196.791 128.745 190.4 128.255C184.029 127.768 176.798 128.394 170.173 130.253C163.369 132.172 158.391 135.023 155.833 138.014C154.558 139.504 153.911 140.997 153.892 142.404C153.873 143.799 154.469 145.19 155.839 146.496C158.758 149.271 164.35 151.024 171.094 151.537C177.811 152.048 185.564 151.321 192.703 149.239C199.658 147.208 204.427 144.305 206.631 141.32C207.725 139.837 208.168 138.364 207.981 136.972C207.794 135.579 206.966 134.181 205.347 132.872Z" stroke="black"/>
<path d="M276.259 130.149L276.259 130.148C276.144 128.778 275.385 127.425 274.024 126.15C272.664 124.875 270.732 123.707 268.348 122.717C263.581 120.736 257.093 119.5 250.021 119.5C242.948 119.5 236.47 120.736 231.708 122.716C229.327 123.707 227.395 124.875 226.033 126.15C224.671 127.425 223.907 128.779 223.784 130.15C223.661 131.591 224.229 132.995 225.445 134.317C226.666 135.645 228.523 136.866 230.903 137.904C235.663 139.977 242.412 141.27 250.021 141.27C257.629 141.27 264.379 139.977 269.139 137.904C271.52 136.866 273.376 135.645 274.597 134.317C275.814 132.994 276.382 131.59 276.259 130.149Z" stroke="black"/>
<path d="M361.221 194.859L361.22 194.858C354.452 191.17 345.921 189.101 337.659 188.754C329.391 188.407 321.456 189.786 315.858 192.928L315.858 192.928C309.978 196.221 307.583 200.78 308.227 205.465C308.877 210.198 312.646 215.234 319.493 219.381L319.493 219.381C326.719 223.758 335.808 226.437 344.566 227.059C353.333 227.683 361.698 226.242 367.515 222.459C372.984 218.9 374.897 213.949 373.765 208.958C372.624 203.924 368.359 198.739 361.221 194.859Z" stroke="black"/>
<path d="M276.57 286.445L276.57 286.445C284.303 280.685 287.415 273.591 286.974 266.826C286.531 260.046 282.513 253.502 275.796 248.876L275.796 248.875C269.416 244.471 260.556 241.888 251.35 241.705C242.146 241.522 232.644 243.738 224.975 248.879L224.974 248.879C216.902 254.277 213.424 261.183 213.479 267.943C213.535 274.719 217.141 281.444 223.427 286.455C236.736 297.061 260.187 298.652 276.57 286.445Z" stroke="black"/>
<path d="M150.193 267.597C155.632 271.589 164.008 273.754 174.108 273.062V272.985L174.603 272.98C185.327 272.867 194.95 269.687 202.097 264.843C209.25 259.993 213.88 253.51 214.72 246.803C215.496 240.574 212.511 234.851 206.939 230.821C201.362 226.788 193.21 224.471 183.763 225.121L183.746 225.122H183.729C174.277 225.122 164.454 228.253 156.917 233.046C149.358 237.852 144.216 244.247 143.888 250.717L143.885 250.765L143.874 250.812C142.179 257.654 144.696 263.561 150.193 267.597Z" stroke="black"/>
<path d="M133.848 223.172L133.849 223.173C139.927 226.515 148.348 227.657 157.003 226.774C165.651 225.893 174.471 222.996 181.328 218.331L181.328 218.331C187.902 213.863 191.145 208.679 191.3 203.95C191.455 199.251 188.564 194.813 182.444 191.794C176.562 188.897 168.66 187.891 160.562 188.674C152.469 189.456 144.232 192.02 137.689 196.205L137.689 196.205C130.883 200.551 127.087 205.77 126.394 210.616C125.708 215.413 128.043 219.993 133.848 223.172Z" stroke="black"/>
<path d="M161.106 173.746C161.245 177.856 164.648 181.337 170.354 183.56C176.034 185.774 183.851 186.67 192.459 185.683C201.066 184.695 208.487 182.051 213.533 178.608C218.603 175.148 221.149 170.985 220.375 166.948C219.641 163.119 215.907 159.88 210.208 157.823C204.538 155.776 197.058 154.955 189.116 155.866C181.173 156.776 174.066 159.271 168.994 162.55C163.895 165.846 160.973 169.847 161.106 173.746Z" stroke="black"/>
<path d="M221.289 159.554C220.985 163.248 223.839 166.743 229.075 169.355C234.278 171.949 241.671 173.574 250.024 173.574C258.377 173.574 265.77 171.949 270.973 169.355C276.21 166.743 279.064 163.248 278.76 159.554C278.471 156.045 275.266 152.73 270.02 150.271C264.809 147.828 257.731 146.306 250.024 146.306C242.316 146.306 235.239 147.828 230.028 150.271C224.783 152.73 221.578 156.045 221.289 159.554Z" stroke="black"/>
</svg>
